<?xml version="1.0" standalone="no"?>
<!DOCTYPE svg PUBLIC "-//W3C//DTD SVG 20010904//EN"
 "http://www.w3.org/TR/2001/REC-SVG-20010904/DTD/svg10.dtd">
<svg version="1.0" xmlns="http://www.w3.org/2000/svg"
 width="281.000000pt" height="281.000000pt" viewBox="0 0 281.000000 281.000000"
 preserveAspectRatio="xMidYMid meet">
<metadata>
Created by potrace 1.14, written by Peter Selinger 2001-2017
</metadata>
<g transform="translate(0.000000,281.000000) scale(0.100000,-0.100000)"
fill="#000000" stroke="none">
<path d="M1220 2725 c-297 -43 -544 -168 -760 -385 -186 -185 -300 -386 -359
-632 -30 -122 -36 -184 -35 -338 2 -271 75 -502 231 -738 191 -288 543 -517
871 -567 20 -3 62 -9 92 -14 30 -5 111 -8 180 -6 511 12 967 308 1188 769 35
72 89 226 97 280 3 17 11 56 17 86 18 84 14 349 -6 453 -53 274 -178 510 -376
707 -199 200 -436 326 -705 376 -113 21 -323 25 -435 9z"/>
</g>
</svg>
